Coordinates
version=1
nRows=49
nColumns=12
inDegrees=yes

Units are S.I. units (second, meters, Newtons, ...)
Angles are in degrees

endheader
time	SC_y	SC_z	SC_x	AC_y	AC_z	AC_x	GH_y	GH_z	GH_yy	EL_x	PS_y
       0.0              -35.85          27.46          81.69          56.43         -2.196          3.578          29.92          10.66         -141.7          34.07          87.93
   0.03851              -35.85          27.47          81.68          56.43         -2.195          3.577          29.91          10.66         -141.7          34.07          87.94
   0.07702              -35.85          27.47          81.67          56.43         -2.194          3.576           29.9          10.67         -141.7          34.07          87.95
    0.1155              -35.85          27.47          81.66          56.43         -2.192          3.575          29.89          10.67         -141.7          34.08          87.96
     0.154              -35.85          27.47          81.65          56.43         -2.191          3.574          29.88          10.68         -141.7          34.08          87.97
    0.1926              -35.84          27.47          81.64          56.43         -2.189          3.574          29.87          10.69         -141.7          34.09          87.99
    0.2311              -35.84          27.47          81.63          56.43         -2.188          3.573          29.86           10.7         -141.7          34.09           88.0
    0.2696              -35.84          27.48          81.61          56.43         -2.186          3.571          29.85          10.71         -141.7          34.09          88.02
    0.3081              -35.84          27.48           81.6          56.43         -2.184           3.57          29.83          10.72         -141.7           34.1          88.03
    0.3466              -35.84          27.48          81.58          56.43         -2.182          3.569          29.82          10.73         -141.7           34.1          88.05
    0.3851              -35.83          27.48          81.56          56.43          -2.18          3.568           29.8          10.74         -141.7          34.11          88.07
    0.4236              -35.83          27.48          81.55          56.43         -2.178          3.566          29.79          10.75         -141.7          34.12          88.09
    0.4621              -35.83          27.49          81.53          56.43         -2.175          3.565          29.77          10.76         -141.7          34.12          88.11
    0.5006              -35.82          27.49           81.5          56.44         -2.173          3.563          29.75          10.77         -141.7          34.13          88.14
    0.5391              -35.82          27.49          81.48          56.44          -2.17          3.561          29.73          10.79         -141.8          34.14          88.16
    0.5777              -35.82           27.5          81.45          56.44         -2.167          3.559           29.7          10.81         -141.8          34.15          88.19
    0.6162              -35.81           27.5          81.43          56.44         -2.163          3.557          29.68          10.82         -141.8          34.15          88.22
    0.6547              -35.81           27.5           81.4          56.44          -2.16          3.555          29.65          10.84         -141.8          34.16          88.25
    0.6932               -35.8          27.51          81.36          56.44         -2.155          3.552          29.62          10.86         -141.8          34.18          88.29
    0.7317               -35.8          27.51          81.33          56.44         -2.151          3.549          29.59          10.89         -141.8          34.19          88.33
    0.7702              -35.79          27.52          81.29          56.44         -2.146          3.546          29.55          10.91         -141.8           34.2          88.37
    0.8087              -35.78          27.53          81.24          56.45         -2.141          3.543          29.51          10.94         -141.8          34.21          88.42
    0.8472              -35.78          27.53           81.2          56.45         -2.135          3.539          29.47          10.97         -141.8          34.23          88.47
    0.8857              -35.77          27.54          81.14          56.45         -2.128          3.535          29.42           11.0         -141.8          34.25          88.53
    0.9243              -35.76          27.55          81.08          56.45         -2.121           3.53          29.37          11.04         -141.8          34.27          88.59
    0.9628              -35.75          27.56          81.02          56.45         -2.113          3.525          29.31          11.08         -141.8          34.29          88.67
     1.001              -35.74          27.57          80.94          56.46         -2.104          3.519          29.24          11.13         -141.8          34.31          88.75
      1.04              -35.72          27.58          80.86          56.46         -2.094          3.513          29.16          11.18         -141.8          34.34          88.84
     1.078              -35.71          27.59          80.76          56.46         -2.082          3.506          29.08          11.24         -141.8          34.37          88.94
     1.117              -35.69           27.6          80.66          56.47         -2.069          3.497          28.98           11.3         -141.8           34.4          89.06
     1.155              -35.67          27.62          80.53          56.47         -2.054          3.488          28.87          11.38         -141.9          34.44          89.19
     1.194              -35.65          27.64          80.39          56.48         -2.037          3.477          28.74          11.47         -141.9          34.49          89.34
     1.232              -35.62          27.66          80.23          56.48         -2.017          3.464          28.59          11.57         -141.9          34.54          89.52
     1.271               -35.6          27.69          80.04          56.49         -1.994           3.45          28.42          11.69         -141.9           34.6          89.73
     1.309              -35.56          27.72          79.82           56.5         -1.967          3.432          28.22          11.83         -141.9          34.67          89.97
     1.348              -35.52          27.75          79.56          56.51         -1.935          3.412          27.99          11.99         -142.0          34.76          90.25
     1.386              -35.47          27.79          79.25          56.52         -1.898          3.388          27.71          12.18         -142.0          34.86          90.59
     1.425              -35.41          27.84          78.88          56.53         -1.852          3.359          27.37          12.41         -142.0          34.98          90.99
     1.463              -35.34           27.9          78.44          56.55         -1.798          3.325          26.97          12.69         -142.1          35.12          91.48
     1.502              -35.26          27.98          77.89          56.57         -1.731          3.282          26.47          13.04         -142.1           35.3          92.07
      1.54              -35.15          28.07          77.21          56.59         -1.648           3.23          25.86          13.46         -142.2          35.52          92.81
     1.579              -35.02          28.18          76.37          56.62         -1.545          3.164          25.09          13.98         -142.3          35.79          93.72
     1.617              -34.86          28.32          75.31          56.66         -1.416          3.082          24.13          14.65         -142.4          36.13          94.88
     1.656              -34.64           28.5          73.96          56.71         -1.251          2.977          22.91          15.49         -142.5          36.57          96.35
     1.694              -34.38          28.73          72.23          56.78          -1.04          2.843          21.34          16.57         -142.7          37.13          98.23
     1.733              -34.03          29.03          70.02          56.86        -0.7692          2.671          19.34          17.96         -143.0          37.84          100.6
     1.771              -33.59          29.41          67.19          56.96        -0.4234          2.451          16.77          19.72         -143.3          38.76          103.7
      1.81              -33.03          29.89          63.63          57.09        0.01137          2.175          13.55          21.95         -143.6          39.91          107.6
     1.849              -32.35          30.47          59.29          57.25         0.5412          1.839          9.615          24.66         -144.1          41.31          112.3
